<?xml version="1.0" standalone="no"?>
<!DOCTYPE svg PUBLIC "-//W3C//DTD SVG 20010904//EN"
 "http://www.w3.org/TR/2001/REC-SVG-20010904/DTD/svg10.dtd">
<svg version="1.0" xmlns="http://www.w3.org/2000/svg"
 width="830.000000pt" height="692.000000pt" viewBox="0 0 830.000000 692.000000"
 preserveAspectRatio="xMidYMid meet">

<g transform="translate(0.000000,692.000000) scale(0.100000,-0.100000)"
fill="#000000" stroke="none">
<path d="M0 3460 l0 -3460 4150 0 4150 0 0 3460 0 3460 -4150 0 -4150 0 0
-3460z m4259 -258 c6 -12 0 -67 -20 -177 -16 -88 -45 -245 -64 -350 -19 -104
-45 -248 -60 -319 -14 -72 -25 -138 -25 -147 0 -10 -7 -25 -16 -33 -16 -17
-37 -11 -66 17 -56 55 -176 149 -197 154 -21 5 -36 -6 -110 -83 -213 -223
-714 -743 -996 -1034 -78 -80 -179 -184 -225 -233 -66 -69 -88 -86 -104 -81
-17 4 -18 3 -6 -5 13 -9 10 -16 -19 -42 -31 -30 -33 -31 -26 -8 4 13 12 25 16
27 5 2 9 7 9 12 0 15 -63 -22 -67 -41 -3 -10 -12 -20 -22 -22 -9 -2 -3 -3 12
-1 17 2 26 0 22 -6 -3 -6 -22 -10 -41 -10 -41 0 -58 14 -290 242 -148 146
-174 168 -202 168 -32 0 -38 -4 -230 -185 -29 -27 -59 -51 -65 -53 -8 -2 -8 0
-2 5 35 29 57 66 61 101 3 22 0 43 -5 46 -5 3 -7 15 -4 26 3 11 -4 42 -15 68
-12 27 -23 61 -26 76 -3 16 -12 36 -21 46 -8 9 -15 22 -15 29 0 7 -21 -5 -47
-26 -102 -84 -71 -48 117 137 107 105 208 198 224 207 61 32 86 16 276 -172
96 -95 186 -178 198 -184 13 -7 34 -10 46 -7 13 3 113 99 222 213 109 115 262
273 339 352 77 79 145 149 150 155 12 14 122 131 437 461 78 83 103 125 73
125 -8 0 -18 6 -21 14 -3 7 -55 55 -115 107 -61 51 -114 100 -118 109 -19 36
-34 30 379 154 526 158 616 185 632 185 10 1 22 -7 27 -17z m-1883 -305 c38
-20 97 -83 120 -127 24 -48 24 -141 -1 -208 l-19 -53 108 -105 109 -106 42 16
c55 22 98 12 135 -31 35 -39 40 -88 13 -133 -20 -35 -52 -50 -104 -50 -33 0
-48 7 -75 34 -30 30 -34 40 -34 84 0 45 -3 53 -37 82 -21 18 -61 53 -88 79
-28 25 -63 57 -78 70 l-27 24 -63 -32 c-87 -44 -160 -45 -243 -3 -90 46 -137
120 -138 218 0 72 15 114 62 172 72 90 217 122 318 69z m-848 -776 c24 -23 32
-38 32 -65 0 -19 -4 -38 -10 -41 -6 -4 -10 8 -10 28 0 41 -48 87 -91 87 -33 0
-76 -33 -82 -63 -4 -22 -4 -22 -6 -1 0 12 12 36 28 53 40 43 93 43 139 2z
m-55 -168 c-7 -2 -19 -2 -25 0 -7 3 -2 5 12 5 14 0 19 -2 13 -5z m2366 -127
c21 -19 21 -21 21 -678 0 -417 -4 -666 -10 -678 -12 -22 -67 -37 -83 -21 -8 8
-3 11 19 11 62 0 59 -28 62 520 l3 500 -41 -2 c-31 -1 -37 -4 -29 -14 13 -16
-17 -34 -58 -35 -15 0 -22 -3 -15 -6 28 -11 8 -20 -48 -22 -54 -1 -60 1 -60
19 0 26 -17 26 -25 0 -4 -12 -15 -20 -28 -20 -34 0 -45 -12 -50 -50 -2 -19 -5
3 -5 49 -1 46 -4 82 -6 80 -8 -8 -15 -182 -22 -584 -8 -415 -7 -427 39 -445
16 -6 17 -9 6 -9 -9 -1 -26 7 -37 17 -21 17 -21 24 -23 672 -3 681 -3 685 39
710 10 6 76 9 173 8 138 -3 159 -5 178 -22z m-2904 -241 c35 -16 11 -20 -32
-5 -20 7 -44 8 -73 1 -23 -5 -38 -6 -34 -1 23 21 98 24 139 5z m81 -59 c24
-24 34 -43 33 -62 l-1 -29 -9 30 c-11 39 -44 75 -69 75 -11 0 -20 5 -20 10 0
21 33 9 66 -24z m-101 -16 c3 -5 1 -10 -4 -10 -6 0 -11 5 -11 10 0 6 2 10 4
10 3 0 8 -4 11 -10z m2845 -100 c0 -5 -4 -10 -10 -10 -5 0 -10 5 -10 10 0 6 5
10 10 10 6 0 10 -4 10 -10z m-2920 -71 c22 -7 40 -16 40 -20 0 -4 -20 -1 -44
7 -28 10 -47 24 -55 40 -16 36 -13 44 5 12 9 -18 28 -32 54 -39z m2657 -96
c-3 -10 -5 -2 -5 17 0 19 2 27 5 18 2 -10 2 -26 0 -35z m-2213 24 c-3 -8 -19
-24 -37 -37 l-32 -23 35 36 c39 41 41 42 34 24z m1974 -87 c22 -21 22 -22 20
-368 l-2 -347 -6 341 c-4 274 -8 344 -19 358 -13 15 -34 17 -191 14 -141 -2
-174 -1 -161 9 11 9 66 12 177 13 148 0 162 -2 182 -20z m-2078 -14 c0 -2 -8
-10 -17 -17 -16 -13 -17 -12 -4 4 13 16 21 21 21 13z m1697 -128 c-2 -24 -4
-5 -4 42 0 47 2 66 4 43 2 -24 2 -62 0 -85z m-193 -364 c22 -21 20 -31 -2 -11
-15 14 -47 17 -183 20 l-164 3 167 2 c140 2 169 0 182 -14z m811 -184 c3 -5 1
-10 -4 -10 -6 0 -11 5 -11 10 0 6 2 10 4 10 3 0 8 -4 11 -10z m300 -10 c-27
-12 -43 -12 -25 0 8 5 22 9 30 9 10 0 8 -3 -5 -9z"/>
<path d="M2215 2789 c-17 -5 -44 -22 -60 -39 -26 -28 -30 -38 -30 -91 0 -57 2
-63 37 -95 32 -28 45 -34 84 -34 50 0 107 27 119 58 23 54 24 88 5 127 -29 61
-92 90 -155 74z"/>
<path d="M3831 1784 c0 -11 3 -14 6 -6 3 7 2 16 -1 19 -3 4 -6 -2 -5 -13z"/>
</g>
</svg>
