<?xml version="1.0" standalone="no"?>
<!DOCTYPE svg PUBLIC "-//W3C//DTD SVG 20010904//EN"
 "http://www.w3.org/TR/2001/REC-SVG-20010904/DTD/svg10.dtd">
<svg version="1.0" xmlns="http://www.w3.org/2000/svg"
 width="720.000000pt" height="898.000000pt" viewBox="0 0 720.000000 898.000000"
 preserveAspectRatio="xMidYMid meet">

<g transform="translate(0.000000,898.000000) scale(0.100000,-0.100000)"
fill="#000000" stroke="none">
<path d="M4315 7452 c-5 -5 65 -77 235 -237 69 -65 150 -142 181 -172 30 -29
59 -50 63 -46 4 5 6 3 4 -2 -1 -6 175 -179 392 -386 217 -206 626 -594 909
-863 282 -268 517 -484 522 -479 4 4 9 13 11 18 3 10 -244 247 -1117 1070
-104 99 -233 220 -285 270 -52 50 -138 131 -190 180 -52 48 -116 108 -141 132
-25 23 -49 40 -54 35 -5 -4 -5 -2 -2 4 3 6 -9 24 -27 41 -26 26 -35 29 -52 20
-17 -9 -17 -9 -6 5 11 14 9 20 -14 42 -15 14 -30 23 -33 22 -3 -2 -12 2 -19
10 -7 8 -10 14 -6 14 4 0 -1 9 -11 20 -10 11 -25 20 -34 20 -14 0 -14 -2 -1
-11 13 -9 13 -10 0 -6 -8 2 -15 14 -15 27 0 13 -7 25 -15 27 -13 4 -13 3 0 -6
8 -6 10 -11 4 -11 -16 0 -35 25 -26 35 4 5 2 6 -3 2 -6 -3 -22 3 -35 14 -19
14 -20 17 -6 12 19 -6 19 -6 0 13 -12 13 -22 16 -27 10 -4 -7 -9 -2 -13 12 -4
12 -11 22 -16 22 -13 0 -149 136 -143 142 3 3 -2 5 -10 5 -8 0 -17 -2 -20 -5z
m359 -323 c-3 -5 -10 -7 -15 -3 -5 3 -7 10 -3 15 3 5 10 7 15 3 5 -3 7 -10 3
-15z m67 -56 c22 -25 22 -26 2 -9 -13 11 -23 16 -23 12 0 -4 -5 -4 -10 -1 -6
4 -8 11 -5 16 8 13 8 12 36 -18z m130 -130 c13 -16 12 -17 -3 -4 -10 7 -18 15
-18 17 0 8 8 3 21 -13z"/>
<path d="M4436 7367 c4 -10 16 -22 28 -29 18 -9 19 -8 6 3 -8 8 -20 21 -27 29
-11 13 -12 13 -7 -3z"/>
<path d="M4334 6434 c20 -14 20 -24 1 -24 -8 0 -15 -5 -15 -11 0 -5 4 -7 10
-4 6 3 7 -1 3 -10 -4 -12 -8 -13 -13 -5 -5 7 -17 0 -35 -22 -15 -18 -30 -32
-31 -30 -2 1 -4 0 -5 -2 0 -9 -144 -152 -150 -152 -4 1 -8 -2 -9 -6 -3 -17
-73 -77 -83 -71 -5 3 -7 1 -4 -4 6 -9 -54 -81 -68 -82 -3 -1 -5 -3 -5 -5 -2
-16 -73 -74 -86 -69 -10 4 -12 0 -8 -11 3 -9 1 -16 -5 -16 -6 0 -10 -3 -10 -7
3 -21 -3 -24 -18 -12 -15 12 -16 12 -9 -6 4 -11 10 -31 12 -45 16 -89 122
-219 220 -272 272 -147 611 -1 690 297 20 73 17 182 -6 257 -21 70 -80 167
-126 210 -45 41 -147 99 -167 94 -9 -2 -15 0 -11 5 5 9 -4 11 -59 13 -24 1
-26 0 -13 -10z m51 -4 c8 -13 -5 -13 -25 0 -13 8 -13 10 2 10 9 0 20 -4 23
-10z m-549 -580 c-2 -17 -6 -33 -9 -37 -3 -3 -4 8 -2 23 2 16 4 32 4 37 1 4 3
7 6 7 2 0 3 -14 1 -30z"/>
<path d="M4403 5456 c1 -6 -6 -11 -15 -11 -9 0 -20 -4 -24 -8 -4 -4 -26 -7
-48 -7 -23 0 -59 -5 -80 -11 -22 -6 -53 -12 -70 -14 -109 -10 -157 -19 -144
-26 9 -6 6 -9 -12 -10 -14 -1 -32 0 -40 1 -14 2 -92 -12 -180 -32 -25 -5 -65
-12 -89 -14 -25 -2 -59 -9 -77 -16 -23 -8 -43 -8 -73 -1 -44 12 -56 8 -19 -6
17 -6 3 -11 -60 -21 -45 -7 -92 -10 -105 -6 -14 3 -31 -1 -43 -10 -10 -8 -14
-13 -8 -10 7 3 14 0 17 -8 3 -8 -2 -13 -14 -12 -10 0 -18 -1 -16 -4 1 -3 -6
-16 -16 -30 -9 -13 -17 -36 -17 -50 l0 -25 990 -4 990 -3 -6 33 c-11 57 -35
98 -82 139 -57 51 -128 84 -244 115 -87 22 -252 49 -273 44 -6 -1 -21 0 -35 4
-49 12 -209 15 -207 3z m-1043 -190 c0 -3 -4 -8 -10 -11 -5 -3 -10 -1 -10 4 0
6 5 11 10 11 6 0 10 -2 10 -4z"/>
<path d="M1765 5268 c-19 -22 -24 -37 -20 -60 8 -43 14 -50 38 -43 12 2 16 2
10 -1 -7 -3 -13 -11 -13 -16 0 -6 3 -8 7 -5 3 4 11 3 17 -2 6 -5 26 -6 44 -4
42 7 65 55 54 111 -6 30 -13 37 -32 39 -14 1 -37 4 -53 6 -21 3 -33 -3 -52
-25z m38 -13 c4 -8 1 -17 -6 -21 -7 -4 -9 -4 -5 1 4 4 3 14 -3 22 -7 8 -8 13
-1 13 5 0 12 -7 15 -15z m-28 -4 c3 -5 2 -12 -3 -15 -5 -3 -9 1 -9 9 0 17 3
19 12 6z"/>
<path d="M6420 4908 c-107 -139 -275 -356 -374 -482 -361 -465 -792 -1022
-826 -1068 -19 -26 -159 -206 -310 -400 -152 -194 -353 -452 -446 -573 l-171
-220 -39 1 -39 1 -490 632 c-433 557 -490 628 -493 602 -3 -24 24 -64 166
-248 94 -120 307 -396 476 -613 l306 -395 -6 -47 c-6 -41 -3 -50 19 -72 36
-35 89 -35 124 0 22 23 25 31 19 72 -5 41 -3 50 22 81 16 20 89 115 163 211
75 96 286 369 469 605 368 474 567 730 795 1025 83 107 300 386 481 620 181
234 343 442 359 463 23 32 26 40 14 48 -8 5 -16 9 -19 9 -3 0 -93 -114 -200
-252z"/>
<path d="M2178 4780 c6 -9 9 -20 5 -25 -5 -4 -2 -5 5 -1 6 4 12 3 12 -3 0 -5
12 -23 26 -40 26 -31 14 -45 -16 -18 -8 6 -6 2 4 -10 10 -13 23 -20 29 -16 6
4 8 0 4 -10 -4 -10 -2 -16 5 -14 7 1 12 -4 13 -11 0 -8 8 -20 18 -27 10 -7 17
-15 15 -17 -1 -1 12 -25 31 -51 31 -45 57 -57 55 -25 -2 21 -87 128 -102 128
-7 0 -12 6 -10 13 3 13 -25 51 -82 115 -14 16 -19 21 -12 12z m122 -156 c0 -8
-19 -13 -24 -6 -3 5 1 9 9 9 8 0 15 -2 15 -3z m61 -86 c7 -14 6 -16 -5 -12 -8
3 -17 13 -20 22 -3 9 -13 28 -22 42 -12 19 -9 17 10 -5 15 -16 31 -38 37 -47z"/>
<path d="M2147 4769 c7 -7 15 -10 18 -7 3 3 -2 9 -12 12 -14 6 -15 5 -6 -5z"/>
<path d="M4670 4759 c-14 -6 -40 -7 -58 -4 -66 12 -62 54 -62 -721 l0 -703 22
-15 c17 -12 48 -16 118 -16 83 0 99 3 118 20 l22 21 0 682 0 682 -48 26 c-62
35 -82 40 -112 28z"/>
<path d="M4205 4503 c-16 -3 -36 -9 -42 -15 -10 -8 -13 -137 -13 -583 0 -541
1 -573 18 -588 15 -14 40 -17 120 -17 157 0 142 -66 142 605 0 664 11 606
-117 604 -43 -1 -91 -4 -108 -6z"/>
<path d="M2381 4487 c-8 -11 -7 -18 7 -31 10 -9 22 -13 27 -9 4 5 5 2 1 -5 -8
-14 12 -45 24 -37 4 3 7 -1 6 -8 0 -6 116 -164 259 -349 223 -289 262 -335
274 -323 10 10 11 18 4 27 -5 7 -63 82 -127 166 -68 88 -122 149 -128 146 -7
-4 -8 -2 -4 5 10 15 -13 43 -27 34 -6 -3 -7 -1 -3 5 8 13 -52 94 -64 87 -5 -3
-11 2 -14 11 -4 9 -2 13 5 8 6 -3 -19 32 -56 80 -60 76 -90 109 -69 74 4 -7 3
-8 -5 -4 -6 4 -9 11 -6 15 2 5 -3 18 -13 29 -9 12 -28 37 -42 56 -28 40 -33
42 -49 23z m63 -53 c3 -8 2 -12 -4 -9 -6 3 -10 10 -10 16 0 14 7 11 14 -7z"/>
<path d="M3768 4201 c-17 -16 -18 -51 -18 -443 0 -399 1 -426 18 -441 15 -14
40 -17 120 -17 155 0 142 -43 142 458 0 362 -2 421 -16 440 -14 20 -23 22
-122 21 -89 0 -110 -3 -124 -18z"/>
<path d="M3011 3677 c-14 -17 -4 -27 26 -27 21 0 22 2 11 20 -15 24 -22 25
-37 7z"/>
</g>
</svg>
